<?xml version="1.0" encoding="UTF-8"?>
<!DOCTYPE svg
PUBLIC "-//W3C//DTD SVG 1.1//EN"
       "http://www.w3.org/Graphics/SVG/1.1/DTD/svg11.dtd">
<svg viewBox="95 -10 519 232" width="424px" height="242px" xmlns="http://www.w3.org/2000/svg" version="1.1">
   <line x1="422" y1="55" x2="412" y2="55" style="stroke:#b0b;stroke-width:1;"/>
   <line x1="172" y1="89" x2="162" y2="89" style="stroke:#b0b;stroke-width:1;"/>
   <line x1="412" y1="55" x2="172" y2="89" style="stroke:#b0b;stroke-width:1;"/>
   <line x1="414.5" y1="55" x2="418.03553390593" y2="58.535533905933" style="stroke:#b0b;stroke-width:2;"/>
   <line x1="414.5" y1="55" x2="418.03553390593" y2="51.464466094067" style="stroke:#b0b;stroke-width:2;"/>
   <line x1="167" y1="89" x2="170.53553390593" y2="92.535533905933" style="stroke:#b0b;stroke-width:2;"/>
   <line x1="167" y1="89" x2="170.53553390593" y2="85.464466094067" style="stroke:#b0b;stroke-width:2;"/>
   <line x1="162" y1="129" x2="172" y2="129" style="stroke:#b0b;stroke-width:1;"/>
   <line x1="420" y1="167" x2="430" y2="167" style="stroke:#b0b;stroke-width:1;"/>
   <line x1="172" y1="129" x2="420" y2="167" style="stroke:#b0b;stroke-width:1;"/>
   <line x1="169.5" y1="129" x2="165.96446609407" y2="132.53553390593" style="stroke:#b0b;stroke-width:2;"/>
   <line x1="169.5" y1="129" x2="165.96446609407" y2="125.46446609407" style="stroke:#b0b;stroke-width:2;"/>
   <line x1="425" y1="167" x2="421.46446609407" y2="170.53553390593" style="stroke:#b0b;stroke-width:2;"/>
   <line x1="425" y1="167" x2="421.46446609407" y2="163.46446609407" style="stroke:#b0b;stroke-width:2;"/>
   <rect width="66" height="20" x="430" y="137" style="fill:#007;stroke:black;"/>
   <text width="66" height="20" x="435" y="151" style="fill:#fff;" font-family="Arial" font-size="16px"> autori</text>
   <rect width="66" height="20" x="430" y="157" style="fill:#aea;stroke:black;"/>
   <text width="66" height="20" x="435" y="171" style="fill:black;" font-family="Arial" font-size="16px">idA</text>
   <rect width="66" height="20" x="430" y="177" style="fill:none;stroke:black;"/>
   <text width="66" height="20" x="435" y="191" style="fill:black;" font-family="Arial" font-size="16px">jmeno</text>
   <rect width="66" height="20" x="430" y="197" style="fill:none;stroke:black;"/>
   <text width="66" height="20" x="435" y="211" style="fill:black;" font-family="Arial" font-size="16px">prijmeni</text>
   <rect width="82" height="20" x="422" y="5" style="fill:#007;stroke:black;"/>
   <text width="82" height="20" x="427" y="19" style="fill:#fff;" font-family="Arial" font-size="16px"> hodnoceni</text>
   <rect width="82" height="20" x="422" y="25" style="fill:#aea;stroke:black;"/>
   <text width="82" height="20" x="427" y="39" style="fill:black;" font-family="Arial" font-size="16px">idH</text>
   <rect width="82" height="20" x="422" y="45" style="fill:none;stroke:black;"/>
   <text width="82" height="20" x="427" y="59" style="fill:black;" font-family="Arial" font-size="16px">idS</text>
   <rect width="82" height="20" x="422" y="65" style="fill:none;stroke:black;"/>
   <text width="82" height="20" x="427" y="79" style="fill:black;" font-family="Arial" font-size="16px">uzivatel</text>
   <rect width="82" height="20" x="422" y="85" style="fill:none;stroke:black;"/>
   <text width="82" height="20" x="427" y="99" style="fill:black;" font-family="Arial" font-size="16px">hodnota</text>
   <rect width="52" height="20" x="110" y="59" style="fill:#007;stroke:black;"/>
   <text width="52" height="20" x="115" y="73" style="fill:#fff;" font-family="Arial" font-size="16px"> serialy</text>
   <rect width="52" height="20" x="110" y="79" style="fill:#aea;stroke:black;"/>
   <text width="52" height="20" x="115" y="93" style="fill:black;" font-family="Arial" font-size="16px">idS</text>
   <rect width="52" height="20" x="110" y="99" style="fill:none;stroke:black;"/>
   <text width="52" height="20" x="115" y="113" style="fill:black;" font-family="Arial" font-size="16px">nazev</text>
   <rect width="52" height="20" x="110" y="119" style="fill:none;stroke:black;"/>
   <text width="52" height="20" x="115" y="133" style="fill:black;" font-family="Arial" font-size="16px">idA</text>
</svg>
